<?xml version="1.0" standalone="no"?>
<!DOCTYPE svg PUBLIC "-//W3C//DTD SVG 20010904//EN"
 "http://www.w3.org/TR/2001/REC-SVG-20010904/DTD/svg10.dtd">
<svg version="1.0" xmlns="http://www.w3.org/2000/svg"
 width="512.000000pt" height="512.000000pt" viewBox="0 0 512.000000 512.000000"
 preserveAspectRatio="xMidYMid meet">

<g transform="translate(0.000000,512.000000) scale(0.100000,-0.100000)"
fill="#FFF" stroke="none">
<path d="M2384 4900 c-401 -33 -793 -170 -1119 -389 -359 -241 -622 -541 -811
-926 -258 -526 -310 -1115 -149 -1675 259 -898 1034 -1566 1958 -1685 167 -21
437 -21 604 0 519 67 1004 310 1378 693 358 367 581 827 651 1342 18 140 18
448 -1 597 -134 1044 -968 1885 -2010 2027 -143 19 -373 27 -501 16z m367
-430 c726 -74 1335 -533 1603 -1210 197 -499 173 -1067 -65 -1551 -102 -208
-197 -341 -367 -513 -535 -543 -1357 -711 -2071 -425 -808 323 -1299 1148
-1196 2009 52 436 242 830 549 1136 408 406 980 611 1547 554z"/>
<path d="M2499 3616 c-60 -21 -100 -56 -125 -110 -24 -51 -24 -54 -24 -393 l0
-343 -347 0 c-318 0 -351 -2 -388 -19 -95 -44 -145 -143 -124 -243 14 -64 84
-141 144 -157 25 -7 164 -11 378 -11 l337 0 0 -332 c0 -204 4 -348 11 -371 6
-21 26 -56 45 -77 98 -108 272 -87 344 40 l25 45 3 347 3 347 347 3 347 3 45
25 c129 73 148 250 37 345 -22 19 -57 40 -76 45 -21 6 -180 10 -368 10 l-333
0 0 333 c0 212 -4 346 -11 372 -15 53 -91 129 -144 144 -51 14 -81 13 -126 -3z"/>
</g>
</svg>
